<svg width="20" height="20" viewBox="0 0 20 20" fill="none" xmlns="http://www.w3.org/2000/svg">
<g clip-path="url(#clip0_1618_1394)">
<circle cx="10" cy="10" r="9.5" fill="#9EC8FF" stroke="white"/>
<path d="M7.12285 12.7949C6.7485 12.5671 6.47018 12.2546 6.28789 11.8574C6.1056 11.4603 6.01445 11.0078 6.01445 10.5C6.01445 10.0052 6.10723 9.55924 6.29277 9.16211C6.47832 8.76172 6.75339 8.44434 7.11797 8.20996C7.48581 7.97559 7.92689 7.8584 8.44121 7.8584C8.85788 7.8584 9.21432 7.92839 9.51055 8.06836C9.80677 8.20508 10.0607 8.44922 10.2723 8.80078H10.3113C10.4806 8.45247 10.6922 8.20996 10.9461 8.07324C11.2 7.93652 11.5092 7.86816 11.8738 7.86816C12.2905 7.86816 12.6502 7.9707 12.9529 8.17578C13.2557 8.38086 13.4868 8.67546 13.6463 9.05957C13.8058 9.44368 13.8855 9.90104 13.8855 10.4316C13.8855 10.9753 13.8253 11.4505 13.7049 11.8574C13.5877 12.2643 13.4103 12.6452 13.1727 13H11.7322C11.9764 12.6029 12.1587 12.1976 12.2791 11.7842C12.4028 11.3708 12.4646 10.9232 12.4646 10.4414C12.4646 9.92708 12.4044 9.54948 12.284 9.30859C12.1635 9.06445 11.9731 8.94238 11.7127 8.94238C11.4751 8.94238 11.296 9.02702 11.1756 9.19629C11.0551 9.3623 10.9949 9.60645 10.9949 9.92871V10.5C10.9949 11.0111 10.9038 11.4652 10.7215 11.8623C10.5392 12.2594 10.2609 12.5719 9.88652 12.7998C9.51543 13.0277 9.05482 13.1416 8.50469 13.1416C7.95456 13.1416 7.49395 13.026 7.12285 12.7949ZM7.43535 10.5C7.43535 10.9655 7.52324 11.3431 7.69902 11.6328C7.8748 11.9258 8.14336 12.0723 8.50469 12.0723C8.86602 12.0723 9.13783 11.9274 9.32012 11.6377C9.50241 11.3447 9.59355 10.9655 9.59355 10.5C9.59355 10.028 9.50241 9.64876 9.32012 9.3623C9.14108 9.07259 8.86602 8.92773 8.49492 8.92773C8.13685 8.92773 7.86992 9.07259 7.69414 9.3623C7.52161 9.65202 7.43535 10.0312 7.43535 10.5Z" fill="#132450"/>
</g>
<defs>
<clipPath id="clip0_1618_1394">
<rect width="20" height="20" fill="white"/>
</clipPath>
</defs>
</svg>
